<?xml version="1.0" encoding="utf-8"?>
<!-- Generator: Adobe Illustrator 16.0.0, SVG Export Plug-In . SVG Version: 6.00 Build 0)  -->
<svg version="1.2" baseProfile="tiny" id="Layer_1" xmlns="http://www.w3.org/2000/svg" xmlns:xlink="http://www.w3.org/1999/xlink"
	 x="0px" y="0px" width="150px" height="69.999px" viewBox="0 0 150 69.999" xml:space="preserve">
<path fill="#FFFFFF" d="M35,0C15.67,0,0,15.67,0,35c0,19.329,15.67,34.999,35,34.999c19.33,0,35-15.67,35-34.999
	C70,15.67,54.33,0,35,0z M40.998,44.617c1.125,1.061,1.177,2.833,0.115,3.958c-0.55,0.583-1.292,0.878-2.037,0.878
	c-0.689,0-1.379-0.253-1.921-0.764L24.802,37.038c-0.561-0.529-0.879-1.266-0.879-2.037c0-0.771,0.318-1.507,0.878-2.037
	L37.154,21.31c1.125-1.061,2.897-1.008,3.958,0.115c1.062,1.125,1.01,2.897-0.115,3.958L30.804,35L40.998,44.617z"/>
<path fill="#FFFFFF" d="M115,69.999c19.331,0,35-15.67,35-35C150,15.67,134.33,0,115,0C95.67,0,80,15.67,80,34.999
	C80,54.329,95.67,69.999,115,69.999z M109.002,25.382c-1.125-1.061-1.177-2.833-0.115-3.958c0.55-0.583,1.292-0.878,2.037-0.878
	c0.689,0,1.379,0.253,1.921,0.764l12.353,11.653c0.561,0.529,0.879,1.266,0.879,2.037c0,0.771-0.318,1.507-0.878,2.037
	l-12.353,11.654c-1.125,1.061-2.897,1.008-3.958-0.115c-1.062-1.125-1.01-2.897,0.115-3.958l10.194-9.617L109.002,25.382z"/>
</svg>
