<?xml version="1.0" encoding="utf-8"?>
<!-- Generator: Adobe Illustrator 16.0.0, SVG Export Plug-In . SVG Version: 6.00 Build 0)  -->
<!DOCTYPE svg PUBLIC "-//W3C//DTD SVG 1.1//EN" "http://www.w3.org/Graphics/SVG/1.1/DTD/svg11.dtd">
<svg version="1.1" id="Layer_1" xmlns="http://www.w3.org/2000/svg" xmlns:xlink="http://www.w3.org/1999/xlink" x="0px" y="0px"
	 width="17.093px" height="75px" viewBox="0 0 17.093 75" enable-background="new 0 0 17.093 75" xml:space="preserve">
<g id="Layer_3">
	<path fill="#FFFFFF" d="M11.391,36.765H3.795V18.381H0v-6.335h3.795V8.242C3.795,3.073,5.938,0,12.025,0h5.068v6.336h-3.168
		c-2.37,0-2.527,0.886-2.527,2.538l-0.008,3.171h5.738l-0.672,6.335H11.39L11.391,36.765L11.391,36.765z"/>
</g>
<g id="Layer_3_1_">
	<path fill="#D83027" d="M11.391,75H3.795V56.616H0v-6.335h3.795v-3.805c0-5.168,2.143-8.242,8.23-8.242h5.068v6.336h-3.168
		c-2.37,0-2.527,0.887-2.527,2.539L11.39,50.28h5.738l-0.672,6.335H11.39L11.391,75L11.391,75z"/>
</g>
</svg>
