<?xml version="1.0" encoding="utf-8"?>
<!-- Generator: Adobe Illustrator 16.0.0, SVG Export Plug-In . SVG Version: 6.00 Build 0)  -->
<!DOCTYPE svg PUBLIC "-//W3C//DTD SVG 1.1//EN" "http://www.w3.org/Graphics/SVG/1.1/DTD/svg11.dtd">
<svg version="1.1" id="Layer_1" xmlns="http://www.w3.org/2000/svg" xmlns:xlink="http://www.w3.org/1999/xlink" x="0px" y="0px"
	 width="36px" height="75px" viewBox="0 0 36 75" enable-background="new 0 0 36 75" xml:space="preserve">
<path fill="#D83027" d="M31.846,39H4.155C1.858,39,0,40.859,0,43.155v27.688C0,73.141,1.859,75,4.155,75h27.689
	C34.141,75,36,73.139,36,70.846V43.156C36,40.859,34.139,39,31.846,39z M18,50.076c3.826,0,6.922,3.099,6.922,6.924
	c0,3.823-3.099,6.922-6.922,6.922S11.079,60.823,11.079,57C11.079,53.175,14.177,50.076,18,50.076z M31.846,69.459
	c0,0.764-0.617,1.387-1.384,1.387H5.54c-0.767,0-1.384-0.623-1.384-1.387v-15.23H7.29C7.059,55.115,6.925,56.042,6.925,57
	c0,6.117,4.959,11.074,11.077,11.074c6.115,0,11.077-4.957,11.077-11.074c0-0.958-0.136-1.885-0.363-2.771h3.132v15.23H31.846z
	 M31.848,48.691c0,0.765-0.619,1.384-1.386,1.384h-4.153c-0.768,0-1.386-0.62-1.386-1.384v-4.154c0-0.764,0.618-1.382,1.386-1.382
	h4.153c0.767,0,1.386,0.618,1.386,1.382V48.691z"/>
<path fill="#FFFFFF" d="M31.846,0H4.155C1.858,0,0,1.859,0,4.154v27.69C0,34.141,1.859,36,4.155,36h27.689
	C34.141,36,36,34.139,36,31.844V4.154C36,1.859,34.139,0,31.846,0z M18,11.078c3.826,0,6.922,3.099,6.922,6.922
	c0,3.824-3.099,6.923-6.922,6.923s-6.921-3.1-6.921-6.923S14.177,11.078,18,11.078z M31.846,30.462c0,0.764-0.617,1.381-1.384,1.381
	H5.54c-0.767,0-1.384-0.618-1.384-1.381V15.229H7.29C7.059,16.115,6.925,17.042,6.925,18c0,6.12,4.959,11.076,11.077,11.076
	c6.115,0,11.077-4.956,11.077-11.076c0-0.958-0.136-1.885-0.363-2.771h3.132v15.234L31.846,30.462L31.846,30.462z M31.848,9.692
	c0,0.765-0.619,1.384-1.386,1.384h-4.153c-0.768,0-1.386-0.621-1.386-1.384V5.537c0-0.765,0.618-1.383,1.386-1.383h4.153
	c0.767,0,1.386,0.618,1.386,1.383V9.692z"/>
</svg>
