<?xml version="1.0" encoding="utf-8"?>
<!-- Generator: Adobe Illustrator 16.0.0, SVG Export Plug-In . SVG Version: 6.00 Build 0)  -->
<!DOCTYPE svg PUBLIC "-//W3C//DTD SVG 1.1//EN" "http://www.w3.org/Graphics/SVG/1.1/DTD/svg11.dtd">
<svg version="1.1" id="Layer_1" xmlns="http://www.w3.org/2000/svg" xmlns:xlink="http://www.w3.org/1999/xlink" x="0px" y="0px"
	 width="50px" height="14px" viewBox="0 0 50 14" enable-background="new 0 0 50 14" xml:space="preserve">
<g id="Layer_3">
	<path fill="#D83327" d="M26.278,12.217h-2.319v-5.61h-1.156V4.675h1.157v-1.16C23.96,1.938,24.614,1,26.472,1h1.546v1.933h-0.966
		c-0.724,0-0.771,0.271-0.771,0.773l-0.003,0.968h1.751l-0.206,1.933h-1.545V12.217L26.278,12.217z"/>
</g>
<path fill="#D83327" d="M48.134,1.326h-8.447c-0.701,0-1.268,0.567-1.268,1.267v8.448c0,0.701,0.566,1.268,1.268,1.268h8.447
	c0.702,0,1.269-0.567,1.269-1.268V2.593C49.402,1.893,48.836,1.326,48.134,1.326z M43.911,4.706c1.167,0,2.112,0.946,2.112,2.113
	c0,1.166-0.947,2.112-2.112,2.112c-1.167,0-2.112-0.947-2.112-2.112C41.8,5.651,42.744,4.706,43.911,4.706z M48.134,10.62
	c0,0.234-0.187,0.421-0.42,0.421h-7.604c-0.233,0-0.423-0.188-0.423-0.421V5.972h0.957c-0.07,0.272-0.112,0.554-0.112,0.846
	c0,1.866,1.515,3.378,3.38,3.378c1.867,0,3.38-1.513,3.38-3.378c0-0.292-0.042-0.575-0.112-0.846h0.956v4.649L48.134,10.62
	L48.134,10.62z M48.136,4.283c0,0.233-0.188,0.423-0.422,0.423h-1.269c-0.234,0-0.422-0.19-0.422-0.423V3.015
	c0-0.233,0.188-0.422,0.422-0.422h1.269c0.233,0,0.422,0.189,0.422,0.422V4.283z"/>
<g id="Livello_x0020_1_1_">
	<path fill="#D83327" d="M14.221,2.334c-0.496,0.218-1.028,0.366-1.586,0.433c0.57-0.341,1.008-0.883,1.212-1.528
		c-0.534,0.317-1.124,0.545-1.753,0.67c-0.503-0.537-1.22-0.871-2.015-0.871c-1.523,0-2.76,1.237-2.76,2.761
		c0,0.216,0.022,0.428,0.072,0.628C5.095,4.312,3.061,3.213,1.7,1.542c-0.239,0.409-0.376,0.885-0.376,1.39
		c0,0.958,0.489,1.804,1.229,2.298C2.102,5.214,1.676,5.09,1.302,4.882c0,0.013,0,0.022,0,0.035c0,1.337,0.952,2.454,2.215,2.707
		C3.286,7.687,3.041,7.721,2.79,7.721c-0.179,0-0.35-0.019-0.519-0.051c0.351,1.097,1.37,1.896,2.577,1.918
		c-0.946,0.741-2.135,1.183-3.429,1.183c-0.224,0-0.442-0.016-0.659-0.039c1.221,0.784,2.672,1.241,4.233,1.241
		c5.078,0,7.856-4.208,7.856-7.856c0-0.12-0.002-0.239-0.008-0.356c0.541-0.391,1.008-0.877,1.378-1.43L14.221,2.334z"/>
</g>
</svg>
