<?xml version="1.0" encoding="utf-8"?>
<!-- Generator: Adobe Illustrator 16.0.0, SVG Export Plug-In . SVG Version: 6.00 Build 0)  -->
<!DOCTYPE svg PUBLIC "-//W3C//DTD SVG 1.1//EN" "http://www.w3.org/Graphics/SVG/1.1/DTD/svg11.dtd">
<svg version="1.1" id="Layer_1" xmlns="http://www.w3.org/2000/svg" xmlns:xlink="http://www.w3.org/1999/xlink" x="0px" y="0px"
	 width="50px" height="14px" viewBox="0 0 50 14" enable-background="new 0 0 50 14" xml:space="preserve">
<g id="Layer_3">
	<path fill="#FFFFFF" d="M26.364,12.777h-2.55v-6.17h-1.272V4.481h1.273V3.205c0-1.734,0.719-2.766,2.762-2.766h1.7v2.126h-1.062
		c-0.796,0-0.847,0.298-0.847,0.851L26.364,4.48h1.927l-0.229,2.126h-1.698V12.777L26.364,12.777z"/>
</g>
<path fill="#FFFFFF" d="M48.557,0.777h-9.293c-0.771,0-1.394,0.624-1.394,1.394v9.293c0,0.771,0.623,1.396,1.394,1.396h9.293
	c0.771,0,1.396-0.625,1.396-1.396V2.171C49.951,1.4,49.328,0.777,48.557,0.777z M43.911,4.494c1.284,0,2.323,1.041,2.323,2.325
	c0,1.283-1.043,2.324-2.323,2.324c-1.283,0-2.323-1.041-2.323-2.324C41.589,5.535,42.628,4.494,43.911,4.494z M48.557,11
	c0,0.257-0.205,0.463-0.463,0.463H39.73c-0.258,0-0.467-0.207-0.467-0.463V5.887h1.053c-0.076,0.299-0.123,0.609-0.123,0.931
	c0,2.052,1.666,3.716,3.719,3.716c2.054,0,3.718-1.664,3.718-3.716c0-0.322-0.046-0.633-0.123-0.931h1.052v5.114L48.557,11
	L48.557,11z M48.559,4.029c0,0.256-0.207,0.465-0.465,0.465h-1.395c-0.258,0-0.465-0.209-0.465-0.465V2.635
	c0-0.256,0.207-0.464,0.465-0.464h1.395c0.258,0,0.465,0.208,0.465,0.464V4.029z"/>
<g id="Livello_x0020_1_1_">
	<path fill="#FFFFFF" d="M14.894,1.917c-0.545,0.24-1.131,0.403-1.745,0.476c0.627-0.375,1.109-0.971,1.334-1.68
		c-0.588,0.348-1.236,0.6-1.929,0.737C12,0.86,11.212,0.492,10.337,0.492c-1.676,0-3.036,1.361-3.036,3.038
		c0,0.237,0.024,0.47,0.079,0.69C4.855,4.093,2.618,2.884,1.121,1.045c-0.263,0.45-0.414,0.974-0.414,1.529
		c0,1.054,0.538,1.984,1.352,2.528C1.562,5.085,1.094,4.949,0.684,4.719c0,0.015,0,0.024,0,0.039c0,1.471,1.047,2.699,2.436,2.977
		c-0.254,0.07-0.523,0.107-0.8,0.107c-0.197,0-0.385-0.021-0.571-0.057C2.135,8.992,3.256,9.87,4.584,9.895
		c-1.041,0.815-2.348,1.301-3.771,1.301c-0.246,0-0.486-0.016-0.725-0.043c1.343,0.863,2.939,1.367,4.657,1.367
		c5.586,0,8.642-4.629,8.642-8.643c0-0.132-0.003-0.263-0.009-0.392c0.595-0.43,1.109-0.965,1.516-1.573V1.917z"/>
</g>
</svg>
