<?xml version="1.0" encoding="utf-8"?>
<!-- Generator: Adobe Illustrator 16.0.0, SVG Export Plug-In . SVG Version: 6.00 Build 0)  -->
<svg version="1.2" baseProfile="tiny" id="Layer_1" xmlns="http://www.w3.org/2000/svg" xmlns:xlink="http://www.w3.org/1999/xlink"
	 x="0px" y="0px" width="100px" height="100px" viewBox="12 13 100 100" xml:space="preserve">
<g>
	<path fill="#C0817A" d="M55.909,96.103c-1.222-0.223-2.456,0.416-2.81,2.349c-0.352,1.93,0.577,2.966,1.798,3.188
		c1.222,0.223,2.456-0.416,2.81-2.349C58.06,97.36,57.131,96.325,55.909,96.103z"/>
	<path fill="#C0817A" d="M67.658,29.818c1.223,0.207,2.449-0.449,2.777-2.384c0.327-1.937-0.617-2.959-1.84-3.166
		c-1.225-0.207-2.45,0.45-2.778,2.385C65.489,28.589,66.434,29.612,67.658,29.818z"/>
	<path fill="#C0817A" d="M45.353,92.378l-0.5-0.267l-2.566,4.794l0.501,0.268c1.167,0.625,2.695,0.853,3.732-1.087
		C47.558,94.148,46.52,93.002,45.353,92.378z"/>
	<path fill="#C0817A" d="M57.803,25.916c0.551-0.064,0.932-0.371,0.852-1.041c-0.079-0.669-0.52-0.878-1.072-0.813l-1.479,0.175
		l0.219,1.854L57.803,25.916z"/>
	<path fill="#C0817A" d="M112,63c0-27.614-22.386-50-50-50S12,35.386,12,63s22.386,50,50,50S112,90.614,112,63z M86.233,30.351
		l1.186,0.979l-4.369,5.286l2.706,2.236l-0.902,1.094l-3.892-3.216L86.233,30.351z M77.5,25.402l1.389,0.658l-2.936,6.196
		l3.174,1.503l-0.606,1.281l-4.562-2.161L77.5,25.402z M64.279,26.394c0.479-2.833,2.489-3.872,4.554-3.523
		c2.063,0.349,3.62,1.991,3.142,4.825c-0.479,2.833-2.49,3.872-4.553,3.523C65.356,30.869,63.8,29.227,64.279,26.394z
		 M57.405,22.654c1.644-0.194,2.615,0.679,2.775,2.04c0.127,1.08-0.315,1.966-1.276,2.388l2.71,3.405l-1.701,0.2l-2.625-3.283
		l-0.799,0.094l0.419,3.545l-1.525,0.18l-0.97-8.215L57.405,22.654z M46.211,25.475c1.651-0.711,3.156-0.354,4.144,0.946
		l-1.132,0.874c-0.624-0.646-1.396-0.97-2.449-0.516c-1.174,0.505-1.807,1.756-1.049,3.516c0.76,1.76,2.104,2.159,3.276,1.654
		c1.054-0.454,1.347-1.237,1.309-2.135l1.41-0.222c0.27,1.609-0.506,2.948-2.156,3.66c-1.901,0.818-4.176,0.202-5.271-2.339
		C43.197,28.371,44.312,26.295,46.211,25.475z M36.367,31.385c0.854-0.692,1.849-0.799,2.802-0.338l-0.467,1.398
		c-0.635-0.277-1.064-0.264-1.441,0.042c-0.351,0.283-0.414,0.747-0.14,1.087c0.91,1.12,3.536-1.253,5.084,0.657
		c1.02,1.258,0.797,2.673-0.434,3.67c-1.166,0.946-2.674,0.814-3.673-0.005l0.473-1.388c0.751,0.532,1.637,0.835,2.334,0.269
		c0.496-0.402,0.636-0.926,0.159-1.514c-0.863-1.065-3.385,1.328-5.038-0.711C35.238,33.579,35.356,32.204,36.367,31.385z
		 M47.896,96.822c-1.367,2.555-3.631,2.75-5.351,1.829l-2.283-1.22l3.904-7.298l2.283,1.221
		C48.17,92.275,49.263,94.269,47.896,96.822z M59.242,99.572c-0.517,2.827-2.54,3.84-4.599,3.464
		c-2.06-0.376-3.595-2.039-3.079-4.866c0.517-2.826,2.54-3.84,4.6-3.464C58.223,95.083,59.759,96.745,59.242,99.572z M59.082,83.303
		l-14.106-14.55c-1.421-1.659-1.227-4.156,0.433-5.577c1.659-1.42,4.155-1.227,5.577,0.433l7.062,7.511V43.218
		c0-2.185,1.771-3.955,3.955-3.955s3.956,1.771,3.956,3.955v27.901l7.598-7.881c1.423-1.657,3.922-1.845,5.578-0.422
		c1.654,1.423,1.845,3.92,0.423,5.577L65.086,83.309c-0.752,0.876-1.847,1.379-3.001,1.379c-0.001,0-0.002,0-0.003,0
		C60.928,84.686,59.832,84.182,59.082,83.303z M71.361,102.64l-1.543,0.241l-2.237-4.58l-0.729,5.046l-1.542,0.242l-3.419-7.842
		l1.611-0.253l2.311,5.802l0.723-5.392l1.309-0.205l2.338,4.912l0.424-6.23l1.611-0.252L71.361,102.64z M82.299,98.202l-5.247-3.403
		l2.561,4.828l-1.357,0.72l-3.881-7.314l1.432-0.76l5.246,3.404l-2.56-4.828l1.357-0.72l3.88,7.314L82.299,98.202z"/>
</g>
</svg>
