<?xml version="1.0" encoding="utf-8"?>
<!-- Generator: Adobe Illustrator 16.0.0, SVG Export Plug-In . SVG Version: 6.00 Build 0)  -->
<!DOCTYPE svg PUBLIC "-//W3C//DTD SVG 1.1//EN" "http://www.w3.org/Graphics/SVG/1.1/DTD/svg11.dtd">
<svg version="1.1" id="Layer_1" xmlns="http://www.w3.org/2000/svg" xmlns:xlink="http://www.w3.org/1999/xlink" x="0px" y="0px"
	 width="100px" height="100px" viewBox="0 0 100 100" enable-background="new 0 0 100 100" xml:space="preserve">
<g>
	<path fill="#C0817A" d="M43.909,83.104c-1.222-0.224-2.456,0.416-2.81,2.349c-0.353,1.93,0.576,2.966,1.797,3.188
		c1.223,0.223,2.457-0.416,2.811-2.35C46.061,84.359,45.131,83.325,43.909,83.104z"/>
	<path fill="#C0817A" d="M55.658,16.818c1.223,0.207,2.449-0.449,2.777-2.384c0.326-1.937-0.617-2.959-1.84-3.166
		c-1.226-0.207-2.451,0.45-2.779,2.385C53.488,15.589,54.434,16.612,55.658,16.818z"/>
	<path fill="#C0817A" d="M33.353,79.378l-0.5-0.267l-2.566,4.794l0.501,0.268c1.167,0.625,2.695,0.853,3.732-1.087
		C35.558,81.148,34.52,80.002,33.353,79.378z"/>
	<path fill="#C0817A" d="M45.803,12.916c0.551-0.064,0.932-0.371,0.852-1.041c-0.078-0.669-0.52-0.878-1.071-0.813l-1.479,0.175
		l0.22,1.854L45.803,12.916z"/>
	<path fill="#C0817A" d="M100,50c0-27.614-22.387-50-50-50C22.386,0,0,22.386,0,50s22.386,50,50,50C77.613,100,100,77.614,100,50z
		 M74.232,17.351l1.187,0.979l-4.369,5.286l2.706,2.236l-0.902,1.094l-3.892-3.216L74.232,17.351z M65.5,12.402l1.389,0.658
		l-2.936,6.196l3.174,1.503l-0.605,1.281l-4.562-2.161L65.5,12.402z M52.279,13.394c0.479-2.833,2.488-3.872,4.554-3.523
		c2.063,0.349,3.62,1.991,3.142,4.825c-0.479,2.833-2.49,3.872-4.553,3.523C53.355,17.869,51.8,16.227,52.279,13.394z M45.404,9.654
		c1.645-0.194,2.615,0.679,2.775,2.04c0.127,1.08-0.314,1.966-1.275,2.388l2.709,3.405l-1.7,0.2l-2.625-3.283l-0.8,0.094l0.42,3.545
		l-1.525,0.18l-0.97-8.215L45.404,9.654z M34.211,12.475c1.651-0.711,3.156-0.354,4.144,0.946l-1.132,0.874
		c-0.624-0.646-1.396-0.97-2.449-0.516c-1.174,0.505-1.807,1.756-1.049,3.516c0.76,1.76,2.104,2.159,3.276,1.654
		c1.054-0.454,1.347-1.237,1.309-2.135l1.411-0.222c0.27,1.609-0.507,2.948-2.157,3.66c-1.901,0.818-4.176,0.202-5.271-2.339
		C31.197,15.371,32.312,13.295,34.211,12.475z M24.367,18.385c0.854-0.692,1.849-0.799,2.802-0.338l-0.467,1.398
		c-0.635-0.277-1.064-0.264-1.441,0.042c-0.351,0.283-0.414,0.747-0.14,1.087c0.91,1.12,3.536-1.253,5.084,0.657
		c1.02,1.258,0.797,2.673-0.434,3.67c-1.166,0.946-2.674,0.814-3.673-0.005l0.473-1.388c0.751,0.532,1.637,0.835,2.334,0.269
		c0.496-0.402,0.636-0.926,0.159-1.514c-0.863-1.065-3.385,1.328-5.038-0.711C23.238,20.579,23.356,19.204,24.367,18.385z
		 M35.896,83.822c-1.367,2.555-3.631,2.75-5.351,1.828l-2.283-1.219l3.904-7.299l2.283,1.221
		C36.17,79.275,37.263,81.27,35.896,83.822z M47.242,86.572c-0.518,2.826-2.54,3.84-4.6,3.464s-3.595-2.039-3.078-4.866
		c0.517-2.826,2.539-3.84,4.6-3.464C46.223,82.083,47.759,83.745,47.242,86.572z M47.082,70.303l-14.106-14.55
		c-1.421-1.659-1.227-4.155,0.433-5.577c1.659-1.42,4.155-1.227,5.577,0.434l7.062,7.511V30.218c0-2.185,1.771-3.955,3.955-3.955
		s3.956,1.771,3.956,3.955v27.901l7.598-7.881c1.424-1.657,3.922-1.846,5.578-0.422c1.654,1.423,1.846,3.92,0.424,5.576
		L53.086,70.309c-0.752,0.877-1.848,1.379-3.001,1.379c-0.001,0-0.002,0-0.003,0C48.928,71.686,47.832,71.182,47.082,70.303z
		 M59.361,89.641l-1.543,0.24l-2.237-4.58l-0.729,5.047l-1.541,0.241l-3.42-7.842l1.611-0.253l2.311,5.802l0.724-5.392l1.31-0.205
		l2.338,4.912l0.424-6.23l1.61-0.252L59.361,89.641z M70.299,85.202l-5.247-3.403l2.562,4.828l-1.357,0.721l-3.881-7.314l1.432-0.76
		l5.246,3.403l-2.56-4.827l1.356-0.721l3.881,7.314L70.299,85.202z"/>
</g>
</svg>
