<?xml version="1.0" encoding="utf-8"?>
<!-- Generator: Adobe Illustrator 16.0.0, SVG Export Plug-In . SVG Version: 6.00 Build 0)  -->
<!DOCTYPE svg PUBLIC "-//W3C//DTD SVG 1.1//EN" "http://www.w3.org/Graphics/SVG/1.1/DTD/svg11.dtd">
<svg version="1.1" id="Layer_1" xmlns="http://www.w3.org/2000/svg" xmlns:xlink="http://www.w3.org/1999/xlink" x="0px" y="0px"
	 width="44.143px" height="75px" viewBox="0 0 44.143 75" enable-background="new 0 0 44.143 75" xml:space="preserve">
<g id="Livello_x0020_1">
	<path fill="#FFFFFF" d="M44.143,4.245c-1.626,0.718-3.37,1.205-5.199,1.422c1.869-1.118,3.304-2.896,3.975-5.009
		c-1.75,1.041-3.686,1.79-5.745,2.199C35.521,1.1,33.171,0,30.564,0c-4.995,0-9.05,4.055-9.05,9.051c0,0.711,0.079,1.402,0.236,2.06
		C14.229,10.735,7.561,7.128,3.1,1.653C2.322,2.988,1.875,4.542,1.875,6.201c0,3.14,1.6,5.91,4.028,7.529
		c-1.481-0.046-2.876-0.454-4.101-1.132c0,0.039,0,0.071,0,0.111c0,4.384,3.12,8.043,7.26,8.872
		c-0.757,0.204-1.56,0.316-2.383,0.316c-0.586,0-1.151-0.06-1.704-0.165c1.151,3.594,4.495,6.213,8.451,6.286
		c-3.101,2.429-6.997,3.875-11.242,3.875c-0.73,0-1.448-0.045-2.159-0.125c4.002,2.568,8.761,4.069,13.875,4.069
		c16.645,0,25.747-13.79,25.747-25.749c0-0.396-0.007-0.784-0.025-1.172c1.771-1.277,3.304-2.87,4.516-4.686L44.143,4.245z"/>
</g>
<g id="Livello_x0020_1_1_">
	<path fill="#D83027" d="M44.117,43.407c-1.626,0.719-3.371,1.204-5.2,1.422c1.869-1.118,3.304-2.896,3.975-5.009
		c-1.751,1.04-3.685,1.791-5.746,2.197c-1.651-1.756-4-2.856-6.606-2.856c-4.996,0-9.05,4.056-9.05,9.051
		c0,0.711,0.078,1.401,0.237,2.061c-7.523-0.376-14.191-3.982-18.652-9.458c-0.778,1.336-1.226,2.89-1.226,4.548
		c0,3.14,1.6,5.911,4.028,7.53c-1.48-0.046-2.876-0.455-4.1-1.133c0,0.041,0,0.072,0,0.111c0,4.385,3.12,8.043,7.259,8.872
		c-0.757,0.205-1.56,0.316-2.382,0.316c-0.586,0-1.151-0.059-1.704-0.164c1.151,3.594,4.494,6.212,8.451,6.286
		c-3.101,2.429-6.997,3.875-11.242,3.875c-0.73,0-1.448-0.045-2.159-0.124C4.002,73.499,8.76,75,13.874,75
		c16.646,0,25.748-13.79,25.748-25.749c0-0.395-0.007-0.782-0.026-1.172c1.771-1.276,3.305-2.869,4.516-4.686L44.117,43.407z"/>
</g>
</svg>
